<?xml version="1.0" standalone="no"?>
<!DOCTYPE svg PUBLIC "-//W3C//DTD SVG 1.1//EN" "http://www.w3.org/Graphics/SVG/1.1/DTD/svg11.dtd">
<svg t="1528866638608" class="icon" style="" viewBox="0 0 1024 1024" version="1.1" xmlns="http://www.w3.org/2000/svg" p-id="3097" xmlns:xlink="http://www.w3.org/1999/xlink" width="200" height="200">
    <defs>
        <style type="text/css"></style>
    </defs>
    <path fill='#ff9600' d="M512 0C229.248 0 0 229.248 0 512s229.248 512 512 512 512-229.248 512-512S794.752 0 512 0zM704 640l0-64-128 0 0 128 64 0-128 128-128-128 64 0 0-128-128 0 0 64-128-128 128-128 0 64 128 0 0-128-64 0 128-128 128 128-64 0 0 128 128 0 0-64 128 128L704 640z" p-id="3098"></path>
</svg>