<?xml version="1.0" standalone="no"?><!DOCTYPE svg PUBLIC "-//W3C//DTD SVG 1.1//EN" "http://www.w3.org/Graphics/SVG/1.1/DTD/svg11.dtd"><svg t="1516355464666" class="icon" style="" viewBox="0 0 1024 1024" version="1.1" xmlns="http://www.w3.org/2000/svg" p-id="1039" xmlns:xlink="http://www.w3.org/1999/xlink" width="200" height="200"><defs><style type="text/css"></style></defs><path d="M640 512 725.333333 512C725.333333 394.24 629.76 298.666667 512 298.666667L512 384C582.826667 384 640 441.173333 640 512M810.666667 512 896 512C896 298.666667 724.053333 128 512 128L512 213.333333C676.693333 213.333333 810.666667 346.88 810.666667 512M853.333333 661.333333C800 661.333333 748.8 652.8 701.013333 637.013333 686.08 632.32 669.44 635.733333 657.493333 647.68L563.626667 741.546667C442.88 680.106667 343.893333 581.12 282.453333 460.373333L376.32 366.506667C388.266667 354.56 391.68 337.92 386.986667 322.986667 371.2 275.2 362.666667 224 362.666667 170.666667 362.666667 147.2 343.466667 128 320 128L170.666667 128C147.2 128 128 147.2 128 170.666667 128 571.306667 452.693333 896 853.333333 896 876.8 896 896 876.8 896 853.333333L896 704C896 680.533333 876.8 661.333333 853.333333 661.333333Z" p-id="1040" fill="#ff9600"></path></svg>